Patient4_TMGait_0pt4_02_right_22_EMG.mot
version=1
nRows=30
nColumns=33
inDegrees=no
endheader
time	1LAddLong	2LGlutMax	3LGlutMed	4LIliopsoas	5LSemiMemb	6LBicFemLong	7LRecFem	8LVastMed	9LVastLat	10LGasMed	11LTibAnt	12lTibPost	13LPeroneusLong	14LSol	15LExtDigLong	16LFlexDigLong	17RAddLong	18RGlutMax	19RGlutMed	20RIliopsoas	21RSemiMemb	22RBicFemLong	23RRecFem	24RVastMed	25RVastLat	26RGasMed	27RTibAnt	28RTibPost	29RPeroneusLong	30RSol	31RExtDigLong	32RFlexDigLong
29.325	-0.019226	-0.28	-0.015411	0.011597	-0.005035	-0.007782	-0.018616	0.019836	0.14908	0.014191	-0.22324	-0.023651	0.033722	-0.016632	-0.098572	-0.013123	-0.066071	-0.39093	-0.46646	-0.002289	-0.47501	0.14053	-0.034943	0.63431	0.02533	0.001373	-0.15976	-0.021973	0.22476	-0.28183	-0.004578	0.006256
29.326	-0.010223	-0.27557	-0.026855	0.019379	-0.005493	-0.011139	-0.005341	0.022278	0.12604	0.022736	-0.053406	-0.032196	-0.005951	0.016174	0.01709	-0.002289	-0.072784	-0.383	-0.59647	-0.041809	-0.65948	0.09964	0.028381	0.18524	0.001984	-0.000305	-0.081482	-0.024567	-0.049896	-0.28153	0.000153	0.000458
29.327	-0.004272	-0.24216	-0.039215	0.016022	-0.000916	-0.011444	0.020142	0.018921	0.12833	0.038452	-0.006409	-0.026245	-0.074463	0.06134	0.19623	0.009613	-0.042572	-0.27664	-0.17822	-0.019379	0.17502	-0.11826	0.15808	-0.1831	0.086212	0.019226	0.15427	-0.018616	-0.37552	-0.21683	-0.002289	-0.00946
29.328	-0.008392	-0.2507	-0.045776	0.004272	0.002899	-0.007324	0.00885	0.027313	0.12344	0.045929	0.005646	-0.020142	-0.077362	0.007782	0.73105	0.017853	-0.002899	-0.36087	-0.31891	0.089417	0.43747	-0.31403	0.29083	-0.70679	0.095215	0.029907	0.10941	-0.014343	0.33035	-0.10162	0	0.002747
29.329	-0.001373	-0.22201	-0.034485	-0.000153	-0.003815	-0.009766	0.069275	0.018158	0.10162	0.028687	0.19012	-0.017395	-0.072021	-0.062866	-0.35355	0.008698	0.004272	-0.43304	-0.15884	0.18845	0.19257	-0.31555	0.33447	-0.94223	0.006714	0.028229	0.040131	-0.017242	-0.68481	-0.12482	0.001526	-0.005341
29.33	-0.000458	-0.20309	-0.023193	0.005035	-0.001526	-0.020599	0.10666	0.025787	0.082855	0.026398	0.21683	-0.007477	-0.036316	-0.10422	-0.44846	-0.00351	-0.019836	-0.4332	-0.19806	0.15747	-0.30685	-0.3009	0.24139	-0.42404	-0.004578	0.027466	-0.2095	-0.014801	0.18692	-0.27527	0.002899	0.00824
29.331	0.005341	-0.22903	-0.045929	-0.001831	-0.000916	-0.001984	0.1297	0.018005	0.099945	0.041809	0.224	0.005035	-0.023346	-0.062866	-0.23483	-0.017242	-0.020905	-0.57342	0.057373	0.009613	-0.43869	-0.35248	0.099182	-0.13794	0.014343	0.028839	-0.35126	-0.013428	1.239	-0.11185	0.002136	0.006256
29.332	-0.001831	-0.17654	-0.034943	0.004578	0.008087	-0.014648	0.1944	0.003967	0.11688	0.043793	-0.1738	-0.015411	-0.0177	-0.004425	0.015869	-0.014801	-0.014496	-0.64362	0.018158	-0.15839	-0.043945	-0.30121	0.042877	0.010071	0.022583	0.020142	-0.19745	-0.014343	-1.1766	0.11765	0.001373	0.003204
29.333	0.005798	-0.15198	-0.057526	0.00946	0.003967	-0.029755	0.2803	0.027466	0.10773	0.026398	-0.3122	0.017853	0.013275	0.053253	0.28275	-0.008545	-0.020905	-0.63248	-0.50919	-0.14664	0.11841	-0.07019	-0.17502	0.097504	0.070801	0.016174	-0.037231	0.00946	-1.2878	0.024872	0.000763	0.005341
29.334	0.00412	-0.15503	-0.065918	0.026703	0.003967	-0.025787	0.25391	0.025482	0.082855	-0.020447	-0.19394	0.010376	0.073547	0.080414	0.27832	-0.015411	0.000305	-0.70877	-0.25101	-0.12329	0.13718	0.10239	-0.29526	0.35187	0.18509	-0.014954	0.01358	0.032654	-0.67734	0.16769	0	-0.00061
29.335	-0.001373	-0.13687	-0.051575	0.028992	0.010071	-0.003815	0.29938	0.019073	0.077362	-0.017242	0.051117	0.014801	0.070801	0.067444	0.29541	-0.008392	0.029755	-0.86227	-0.63263	0.005341	0.02594	-0.085602	-0.1506	-0.043488	0.43976	-0.045319	-0.13519	-0.242	-0.33844	0.22766	-0.00061	0.010681
29.336	-0.003204	-0.1062	-0.02182	0.00946	0.006256	0.026703	0.5719	0.014038	0.065918	-0.00351	0.13107	0.01297	0.046387	0.099792	0.17395	-0.008698	0.059509	-0.91446	-0.93613	-0.012665	-0.021515	-0.14999	0.12756	-0.22751	0.53619	-0.02655	-0.16037	-0.27313	0.64697	-0.17151	0.001068	-0.000458
29.337	-0.006409	-0.050812	0.004425	-0.015106	0.001526	0.035553	0.70725	0.019073	0.034637	0.032501	0.078583	0.020294	-0.093994	0.088196	-0.014191	-0.022583	0.088348	-0.811	0.38422	-0.034637	-0.098877	-0.1329	0.082092	-0.19241	0.30945	-0.022583	-0.13001	-0.23148	1.371	-0.55756	0.007629	-0.005951
29.338	-0.000916	-0.061798	-0.066528	-0.005035	0.011597	0.025482	0.62332	0.019989	0.016785	0.051422	0.027466	0.021515	-0.10239	0.059052	0.048828	-0.016479	0.062714	-0.81192	0.64224	0.021515	-0.086365	-0.067596	-0.04837	-0.11353	0.17929	-0.009766	-0.032654	0.22232	0.97961	-0.46463	0.006714	-0.005646
29.339	-0.008087	-0.06424	-0.13229	0.024567	0.004883	0.024261	0.54611	0.011139	-0.01358	0.01358	-0.10071	0.010376	0.011597	0.056305	0.33981	-0.018311	0.041809	-0.87021	0.39398	0.065918	0.077667	-0.075531	0.038452	-0.19974	0.054169	-0.005493	-0.023956	0.33554	0.39444	-0.39185	-0.001526	-0.010834
29.34	0.058289	-0.042572	-0.13763	0.006866	-0.002136	0.014648	0.44815	0.036011	-0.038757	-0.00946	-0.13199	0.00061	0.073242	0.078125	0.041504	-0.015411	0.026093	-0.81634	-0.009918	0.06546	0.20737	-0.093536	0.04715	-0.17273	-0.085449	0.006409	-0.018158	0.075989	-0.17548	0.22125	0.000763	-0.015259
29.341	-0.049896	0.005798	-0.076752	-0.024872	-0.001068	0.012665	0.3772	0.01297	-0.057526	0.018005	-0.14847	0.008698	0.010376	0.12543	0.025024	-0.025177	0.004883	-0.72327	-0.19211	0.004272	0.23483	-0.004425	-0.076599	0.020142	-0.62149	0.004425	0.031738	0.032196	-0.54764	0.54611	0.001373	-0.018158
29.342	-0.033875	0.061188	-0.032043	-0.019989	-0.00412	0.03952	0.23148	0.025635	-0.040894	0.03006	0.036774	0.00824	-0.035095	0.11429	-0.10971	-0.032196	0.000763	-0.71442	-0.6897	-0.027924	-0.038757	0.030975	-0.029602	0.13245	-0.67978	0.013275	0.06958	0.038452	-0.31616	0.48889	0.000916	-0.010071
29.343	0.009613	0.055237	-0.026703	-0.015564	-0.002136	0.032959	0.25452	0.027466	-0.069275	-0.001678	0.16174	0.00885	0.013885	0.18249	-0.13153	-0.020142	-0.059052	-0.68619	-0.90653	-0.064087	-0.082703	0.14938	-0.16708	0.11414	-0.47287	0.007477	0.027161	0.030823	0.14297	-0.074768	0.002136	-0.016022
29.344	-0.019379	0.065765	-0.089417	-0.019836	-0.006866	0.027924	0.23086	0.019836	-0.077057	-0.019073	0.14999	0.007629	0.059967	0.19669	0.003967	-0.017395	-0.083923	-0.71625	-1.0063	-0.015411	-0.16739	0.20203	-0.16922	0.071259	-0.24094	-0.001984	0.032043	-0.09491	0.08194	-0.19928	0.004883	-0.028381
29.345	-0.007019	0.099792	-0.061035	-0.006256	-0.00473	0.029602	0.065918	0.036926	-0.065155	-0.021667	0.19577	0.009308	0.08194	0.16785	0.14023	-0.013123	-0.025024	-0.62927	-0.6424	-0.059662	-0.047913	0.06546	-0.081024	0.072021	-0.12146	-0.009155	0.030975	0.067291	-0.2626	-0.242	0	-0.029449
29.346	0.00946	0.11459	-0.057373	0.024719	0.001526	0.030975	-0.12924	0.046082	-0.044556	-0.003357	0.17502	0.015564	0.053864	0.10407	-0.008087	-0.015564	-0.010071	-0.65735	0.039063	-0.062714	-0.27008	0.029755	-0.16541	0.003052	-0.12009	-0.024261	0.073547	0.013885	-0.48477	-0.46127	0.001373	-0.019531
29.347	0.006866	0.11627	-0.043488	0.011139	-0.003815	0.054169	-0.12573	0.032043	-0.014648	0.030975	0.000305	0.007782	-0.021057	-0.010376	-0.16083	-0.017242	-0.009613	-0.63675	-0.023499	-0.015869	-0.39703	0.03006	-0.29587	0.001221	-0.006104	-0.033875	-0.006714	-0.012512	0.035095	-0.8699	-0.000153	-0.011749
29.348	0.006714	0.16312	-0.033112	-0.010223	-0.006256	0.054169	-0.15152	0.016632	-0.02594	0.055237	-0.044708	0.008545	-0.046387	-0.016327	-0.10925	-0.011444	-0.007935	-0.56046	-0.074463	-0.001526	0.017395	-0.026245	-0.28763	0.22507	0.21606	-0.016479	-0.032043	-0.041656	0.28244	-0.49103	-0.000458	-0.005341
29.349	0.018616	0.19653	-0.048065	-0.017242	-0.000916	0.036926	-0.23132	0.014496	-0.053406	0.053101	-0.12116	0.010834	-0.036926	0.013885	-0.062103	-0.014038	0.01709	-0.48248	0.32486	-0.025482	0.24674	-0.12619	-0.019989	0.23697	0.11856	0.016632	-0.033875	-0.051117	0.10773	0.1181	0.000763	-0.007629
29.35	0.010681	0.18051	-0.057526	-0.034485	0.000305	0.037384	-0.26001	0.028229	-0.042572	0.006409	-0.095825	0.013733	-0.004272	0.095367	0.43671	0.002136	0.021057	-0.40482	0.36667	-0.019531	0.11276	-0.1506	0.073547	0.24323	0.046082	0.025787	-0.037994	-0.062256	0.31174	0.14603	0.005798	-0.001373
29.351	0.013123	0.19592	-0.092621	-0.004578	-0.001678	0.031586	-0.33127	0.007172	-0.009613	-0.063171	0.062561	0.010223	-0.014038	0.12543	0.34866	0.002441	-0.015869	-0.32822	-0.054932	0.035858	-0.040741	-0.052795	-0.004425	0.24414	0.01709	0.009308	0.026093	-0.004883	0.42694	0.31113	0.000153	-0.004425
29.352	0.007782	0.25024	-0.093994	0.02533	0.001678	0.023041	-0.34775	-0.00061	-0.006409	-0.024414	0.028076	0.017242	-0.003662	0.14404	0.71472	0.003815	-0.0177	-0.13641	0.26215	0.022125	-0.15015	-0.014954	-0.020142	0.12848	-0.005341	0.003204	0.036621	0.026703	0.1268	0.49164	-0.001221	-0.005188
29.353	0.014191	0.26428	-0.078735	0.050659	-0.002594	0.019836	-0.11643	-0.006256	-0.015411	-0.012512	-0.0737	0.014343	0.08728	0.21851	0.007782	0.011902	0.017242	-0.065613	0.21194	0.086212	-0.12085	0.000763	0.044556	0.008698	-0.022583	0.014191	0.018005	0.029297	-0.40863	0.48996	0.00061	-0.010071
29.354	0.009918	0.23712	-0.089569	0.059204	0.003967	0.000916	0.010223	-0.024109	-0.021362	0.001373	0.025787	-0.006409	-0.001831	0.22705	-0.25635	-0.004578	0.023804	-0.12543	-0.00351	0.066223	-0.10071	0.112	0.081024	-0.044861	-0.003052	0.015564	0.005188	0.004272	-0.15442	0.20523	0	-0.010376
